<?xml version="1.0" standalone="no"?>
<!DOCTYPE svg PUBLIC "-//W3C//DTD SVG 20010904//EN"
        "http://www.w3.org/TR/2001/REC-SVG-20010904/DTD/svg10.dtd">
<svg
        xmlns:dc="http://purl.org/dc/elements/1.1/"
        xmlns:cc="http://creativecommons.org/ns#"
        xmlns:rdf="http://www.w3.org/1999/02/22-rdf-syntax-ns#"
        xmlns:svg="http://www.w3.org/2000/svg"
        xmlns="http://www.w3.org/2000/svg"
        xmlns:sodipodi="http://sodipodi.sourceforge.net/DTD/sodipodi-0.dtd"
        xmlns:inkscape="http://www.inkscape.org/namespaces/inkscape"
        sodipodi:docname="icon.svg"
        inkscape:version="1.0 (4035a4fb49, 2020-05-01)"
        id="svg8"
        version="1.1"
        viewBox="0 0 5.5049856 8.4064395"
        height="8.4064398mm"
        width="5.5049858mm">
    <defs
            id="defs2">
        <rect
                x="114.45118"
                y="101.37907"
                width="60.154144"
                height="16.025646"
                id="rect96" />
    </defs>
    <sodipodi:namedview
            inkscape:snap-center="false"
            showguides="true"
            inkscape:window-maximized="0"
            inkscape:window-y="8"
            inkscape:window-x="1924"
            inkscape:window-height="2144"
            inkscape:window-width="1908"
            showgrid="false"
            inkscape:document-rotation="0"
            inkscape:current-layer="text12"
            inkscape:document-units="mm"
            inkscape:cy="-37.827599"
            inkscape:cx="132.19625"
            inkscape:zoom="3.959798"
            inkscape:pageshadow="2"
            inkscape:pageopacity="0.0"
            borderopacity="1.0"
            bordercolor="#666666"
            pagecolor="#ffffff"
            id="base"
            inkscape:guide-bbox="true">
        <sodipodi:guide
                position="109.78146,-13.529544"
                orientation="1,0"
                id="guide124" />
    </sodipodi:namedview>
    <metadata
            id="metadata5">
        <rdf:RDF>
            <cc:Work
                    rdf:about="">
                <dc:format>image/svg+xml</dc:format>
                <dc:type
                        rdf:resource="http://purl.org/dc/dcmitype/StillImage" />
                <dc:title></dc:title>
            </cc:Work>
        </rdf:RDF>
    </metadata>
    <g
            transform="translate(-26.858232,-56.314115)"
            id="layer1"
            inkscape:groupmode="layer"
            inkscape:label="Layer 1">
        <g
                fill="{{ $.Site.Params.Colors.primary }}"
                transform="matrix(1.351506,0,0,1.351506,-37.651642,-31.05204)"
                style="font-style:normal;font-weight:normal;font-size:10.5833px;line-height:1.25;font-family:sans-serif;fill-opacity:1;stroke:none;stroke-width:0.264583"
                id="text12"
                aria-label="labs">
            <g
                    aria-label="labs"
                    id="text88"
                    style="font-size:7.83077px;line-height:1.25;font-family:'ChunkFive Print';-inkscape-font-specification:'ChunkFive Print';stroke-width:0.0517972"
                    transform="matrix(1.0826928,0,0,1.0826928,-5.6981759,-7.9698348)" />
            <g
                    aria-label="frieser"
                    id="text92"
                    style="font-style:normal;font-variant:normal;font-weight:normal;font-stretch:normal;font-size:8.25564px;line-height:1.25;font-family:LaBoldyta;-inkscape-font-specification:LaBoldyta;stroke-width:0.0546076"
                    transform="matrix(1.1537614,0,0,1.1537614,-10.548442,-13.168992)">
                <path
                        d="m 52.397051,67.442496 q -0.181624,0 -0.305459,0.03302 -0.123835,0.02477 -0.272436,0.09907 -0.239414,0.08256 -0.429293,0.214647 -0.18988,0.13209 -0.330226,0.305458 -0.03302,0.02477 -0.09907,0.05779 -0.02477,0.01651 -0.0083,0.03302 0.01651,0.0083 0.04128,0.0083 -0.272436,0.396271 -0.346737,0.924632 -0.03302,0.198135 -0.04128,0.404526 -0.0083,0.198135 -0.01651,0.412782 h -0.0083 q -0.01651,0.01651 0.0083,0.03302 -0.0083,0.115579 -0.0083,0.231158 0,0.107323 -0.01651,0.222902 -0.0083,0.107323 -0.0083,0.214646 0,0.107324 0,0.222903 -0.01651,0.01651 0,0.02477 0,0.189879 0,0.379759 0.0083,0.18988 0.0083,0.37976 v 0.115578 q -0.0083,0.0083 -0.0083,0.0083 -0.0083,0.0083 0.0083,0.0083 -0.0083,0.06605 -0.01651,0.148601 0,0.0743 0,0.156857 -0.01651,0.01651 -0.03302,0.02477 -0.0083,0.0083 0.03302,0.0083 0,0.06605 0,0.123835 0,0.05779 0.0083,0.123834 -0.01651,0.01651 0.0083,0.01651 0.01651,0.08256 0.03302,0.140346 -0.0083,0 -0.0083,0.0083 0,0 0.0083,0 0.03302,0.08256 0.05779,0.115579 0.06605,0.08256 0.189879,0.140346 -0.0083,0 -0.02477,0.01651 -0.01651,0.01651 0.0083,0.01651 0.03302,-0.0083 0.04953,-0.01651 v -0.0083 q 0.115579,0.04128 0.247669,0.04128 0.140346,0 0.255925,0 0.354992,0 0.544872,-0.123835 0.18988,-0.123835 0.239414,-0.429293 0.04953,-0.05779 0.0743,-0.173369 0.05779,-0.255924 0.04953,-0.544872 -0.0083,-0.288947 -0.02477,-0.553128 h 0.132091 q 0.01651,0.01651 0.03302,0 0.09907,-0.0083 0.18988,-0.03302 0.09907,-0.02477 0.165113,-0.09081 0.0743,-0.0743 0.123834,-0.156858 0.05779,-0.08256 0.08256,-0.189879 0.03302,-0.115579 0.06605,-0.222903 0.04128,-0.107323 0.0743,-0.222902 0.04953,-0.107323 0.06605,-0.222902 0.01651,-0.123835 0,-0.222902 -0.01651,-0.107324 -0.0743,-0.173369 -0.04953,-0.0743 -0.148602,-0.09081 -0.08256,-0.0083 -0.198135,0.01651 -0.107323,0.01651 -0.214647,0.02477 -0.09907,0 -0.181624,-0.03302 -0.0743,-0.04128 -0.09081,-0.165113 -0.02477,-0.173368 -0.02477,-0.354993 0.115579,-0.01651 0.231158,-0.02477 0.123835,-0.0083 0.214647,0.05779 -0.01651,0.01651 -0.03302,0.02477 -0.01651,0.01651 0.0083,0.01651 0.03302,0 0.04953,-0.01651 h 0.0083 l 0.01651,0.01651 q 0.01651,0.01651 0.01651,0.03302 0,0 -0.01651,0.01651 -0.03302,0.01651 -0.0083,0.02477 0.02477,0.0083 0.04128,-0.0083 0.02477,0.06605 0.03302,0.132091 0.01651,0.05779 0.08256,0.115579 0.06604,0.04953 0.165113,0.06605 0.107323,0.0083 0.222902,0.0083 0.02477,0 0.03302,-0.0083 0.0743,0 0.13209,-0.0083 0.06605,-0.0083 0.107324,-0.01651 0.280691,-0.04953 0.363248,-0.247669 0.09081,-0.198136 0.09081,-0.437549 0,-0.01651 0,-0.02477 0.0083,-0.0083 0.0083,-0.02477 0.04953,-0.346737 -0.107323,-0.561384 -0.156857,-0.222902 -0.412782,-0.346737 -0.255925,-0.123834 -0.561383,-0.165112 -0.305459,-0.04953 -0.553128,-0.04953 z m -0.800797,0.255925 q -0.05779,0.04128 -0.09907,0.09907 -0.03302,0.04953 -0.0743,0.107324 -0.01651,0.0083 -0.03302,0.01651 -0.0083,0.0083 -0.02477,0.01651 -0.04953,0.03302 -0.107324,0.05779 -0.04953,0.02477 -0.09907,0.04953 0.173368,-0.206391 0.437549,-0.346736 z m -0.96591,4.491068 q 0.01651,0 0.01651,-0.0083 0.06604,-0.05779 0.13209,-0.107323 0.0743,-0.05779 0.140346,-0.107324 0.03302,-0.02477 0.05779,-0.04953 0.03302,-0.03302 0.0743,-0.06605 0,0.08256 0.0083,0.123834 -0.115579,0.06605 -0.222902,0.148602 -0.09907,0.08256 -0.206391,0.173368 z m 0.0083,0.165113 q 0.107324,-0.09081 0.206391,-0.181625 0.107324,-0.09081 0.222903,-0.156857 0,0.06605 0.02477,0.123835 -0.123835,0.06605 -0.231158,0.156857 -0.09907,0.08256 -0.206391,0.165113 -0.01651,-0.06604 -0.01651,-0.107323 z m 0.354993,-0.495339 q -0.09081,0.08256 -0.181624,0.148602 -0.09081,0.06605 -0.181624,0.140346 v -0.09081 q 0.09081,-0.09081 0.214646,-0.173369 0.04953,-0.04128 0.09907,-0.0743 0.04953,-0.04128 0.09907,-0.08256 v 0.08256 z M 50.630344,71.75194 q 0.148601,-0.123835 0.297203,-0.222902 0.05779,-0.03302 0.115579,-0.09081 v 0.123834 q -0.107324,0.08256 -0.206391,0.165113 -0.09907,0.0743 -0.206391,0.156857 z m 0,-0.445805 q 0.09907,-0.09907 0.198135,-0.181624 0.107323,-0.08256 0.222902,-0.165113 v 0.02477 0.0743 q -0.107323,0.0743 -0.214646,0.148602 -0.09907,0.0743 -0.206391,0.156857 z m 0.0083,-0.445804 q 0.107324,-0.0743 0.206391,-0.148602 0.09907,-0.08256 0.198136,-0.165113 v 0.123835 q -0.09907,0.06605 -0.198136,0.148602 -0.09081,0.0743 -0.189879,0.156857 -0.02477,0.01651 0,0.02477 0.03302,0 0.04953,-0.01651 l 0.346737,-0.272436 v 0.05779 q -0.115579,0.08256 -0.214646,0.181624 -0.09907,0.09081 -0.206391,0.181624 v -0.107323 q 0,-0.04128 0,-0.08256 0.0083,-0.04128 0.0083,-0.08256 z m 0.02477,-0.77603 q 0.02477,0 0.02477,-0.0083 0.09081,-0.0743 0.173369,-0.140346 0.08256,-0.0743 0.173368,-0.140346 v 0.140346 q -0.04128,0.02477 -0.0743,0.04953 -0.02477,0.02477 -0.05779,0.04128 -0.06605,0.04953 -0.123835,0.09907 -0.05779,0.04953 -0.123834,0.09081 0.0083,-0.04128 0.0083,-0.13209 z m -0.0083,0.173368 q 0.0083,0 0.0083,0 0,-0.0083 0.0083,-0.0083 0.140346,-0.09907 0.255925,-0.206391 0.02477,-0.01651 0.04953,-0.03302 0.02477,-0.01651 0.05779,-0.03302 v 0.107324 q -0.01651,0.01651 -0.04128,0.02477 -0.02477,0 -0.04128,0.0083 -0.03302,0.01651 -0.05779,0.04128 -0.02477,0.01651 -0.04128,0.03302 l -0.198135,0.148601 z m 0.379759,-0.503594 q -0.09907,0.06605 -0.18988,0.148601 -0.09081,0.0743 -0.181624,0.148602 0.0083,-0.04128 0.0083,-0.123835 0.09081,-0.06605 0.181624,-0.13209 0.09081,-0.0743 0.181624,-0.13209 z m -0.388015,0.652196 h 0.0083 q 0.0743,-0.04953 0.13209,-0.09907 0.06604,-0.05779 0.13209,-0.107323 0.03302,-0.01651 0.05779,-0.03302 0.02477,-0.01651 0.05779,-0.03302 v 0.107324 q -0.107323,0.08256 -0.198135,0.173368 -0.09081,0.08256 -0.18988,0.165113 z m -0.0083,0.239413 q 0.107324,-0.06605 0.198136,-0.156857 0.09907,-0.09907 0.198135,-0.181624 0,0.04128 0,0.09081 0.0083,0.04128 0.0083,0.08256 -0.09907,0.08256 -0.206391,0.165113 -0.09907,0.0743 -0.198136,0.148602 z m -0.0083,0.520105 h 0.02477 q 0.0083,0 0.0083,-0.0083 0.09907,-0.09081 0.18988,-0.173369 0.09907,-0.09081 0.198135,-0.173368 v 0.09081 q -0.107323,0.08256 -0.214646,0.165113 -0.107324,0.0743 -0.206391,0.165113 z m 0,0.239414 q 0.0083,0 0.01651,-0.0083 0.09907,-0.0743 0.198135,-0.148601 0.09907,-0.0743 0.206391,-0.148602 v 0.115579 q -0.107323,0.0743 -0.206391,0.156857 -0.09907,0.0743 -0.214646,0.132091 z m 0.462316,-2.435414 q -0.107324,0.04953 -0.198136,0.123835 -0.09081,0.0743 -0.181624,0.140346 0.0083,-0.04128 0.0083,-0.0743 0,-0.04128 0.0083,-0.08256 0.02477,0 0.03302,-0.0083 0.09081,-0.05779 0.173368,-0.115579 0.08256,-0.06605 0.173369,-0.123835 -0.0083,0.04128 -0.01651,0.0743 0,0.02477 0,0.06605 z m -0.354993,0.08256 q 0.0083,-0.04953 0.0083,-0.09907 0.0083,-0.04953 0.02477,-0.09907 h 0.0083 l 0.371504,-0.222902 q -0.01651,0.06605 -0.03302,0.165113 -0.09907,0.05779 -0.198135,0.123834 -0.09081,0.06605 -0.181624,0.132091 z m 0.04953,-0.24767 q 0.0083,-0.04128 0.01651,-0.0743 0.0083,-0.03302 0.02477,-0.0743 0.09907,-0.04953 0.18988,-0.107323 0.09081,-0.05779 0.181624,-0.115579 -0.0083,0.04128 -0.01651,0.0743 -0.0083,0.03302 -0.01651,0.0743 -0.09907,0.04953 -0.198135,0.107323 -0.09081,0.05779 -0.181624,0.115579 z m 0.05779,-0.206391 q 0.01651,-0.04953 0.04128,-0.09907 0.02477,-0.04953 0.04128,-0.09081 0.0083,-0.0083 0.01651,-0.0083 0.08256,-0.04128 0.165113,-0.08256 0.08256,-0.04953 0.165113,-0.09081 l -0.04953,0.148601 q -0.09907,0.04953 -0.18988,0.115579 -0.09081,0.05779 -0.18988,0.107323 z m 0.445805,-0.404526 q -0.04953,0.01651 -0.06605,0.03302 -0.0743,0.03302 -0.148602,0.06605 -0.06605,0.03302 -0.13209,0.0743 0.03302,-0.06605 0.06605,-0.115579 0.03302,-0.05779 0.0743,-0.115578 0.06605,-0.04128 0.13209,-0.06605 0.06605,-0.03302 0.13209,-0.06605 0.0083,-0.0083 0.01651,-0.0083 0.0083,0 0.01651,-0.0083 -0.01651,0.04128 -0.03302,0.0743 -0.01651,0.02477 -0.03302,0.06605 -0.0083,0.01651 -0.01651,0.03302 0,0.01651 -0.0083,0.03302 z M 50.6963,69.432108 q 0,-0.04128 0,-0.0743 0.0083,-0.04128 0.0083,-0.08256 0.02477,0 0.03302,-0.0083 0.09081,-0.05779 0.173368,-0.123834 0.08256,-0.0743 0.173369,-0.123835 -0.0083,0.04128 -0.0083,0.0743 0,0.02477 -0.0083,0.06604 -0.09081,0.05779 -0.181624,0.123834 -0.09081,0.05779 -0.181625,0.123835 -0.0083,0.01651 0.01651,0.01651 0.03302,-0.0083 0.04128,-0.01651 0.0743,-0.05779 0.148601,-0.115579 0.0743,-0.05779 0.156858,-0.09907 -0.0083,0.03302 -0.0083,0.0743 0,0.03302 -0.0083,0.0743 -0.08256,0.04953 -0.165112,0.107323 -0.0743,0.04953 -0.156858,0.115579 -0.02477,0.01651 0,0.03302 0.03302,0.0083 0.04953,-0.0083 0.140346,-0.115579 0.272436,-0.18988 0,0.04128 -0.0083,0.05779 0,0.04128 0,0.0743 0,0.03302 -0.0083,0.0743 -0.09081,0.05779 -0.181624,0.123835 -0.08256,0.06605 -0.173368,0.13209 0.0083,-0.107323 0.0083,-0.214646 0,-0.107324 0.0083,-0.214647 z m -0.06605,2.121699 q 0.01651,0 0.01651,-0.0083 0.115579,-0.04953 0.206391,-0.123835 0.09907,-0.0743 0.198135,-0.140346 0,0.02477 -0.0083,0.04953 0,0.02477 0,0.05779 -0.06605,0.04953 -0.107324,0.09081 -0.04128,0.04128 -0.09907,0.0743 -0.05779,0.03302 -0.107324,0.0743 l -0.09907,0.0743 z m 0,0.445805 v -0.09081 q 0.01651,-0.0083 0.02477,-0.0083 0.0083,0 0.01651,-0.0083 0.09081,-0.0743 0.181624,-0.140346 0.09907,-0.0743 0.18988,-0.148602 v 0.09081 q -0.09907,0.05779 -0.18988,0.140346 l -0.222902,0.173369 z m 0.05779,0.553128 q -0.01651,-0.03302 -0.01651,-0.04953 0.107323,-0.08256 0.206391,-0.173368 0.107323,-0.09081 0.222902,-0.156858 0.0083,0.04128 0.01651,0.0743 0.0083,0.02477 0.01651,0.05779 0,0 0.01651,0.01651 -0.115579,0.06605 -0.214647,0.148602 -0.09907,0.0743 -0.198135,0.156857 -0.01651,-0.01651 -0.02477,-0.03302 -0.0083,-0.01651 -0.02477,-0.04128 z m 0.06605,0.09907 h 0.0083 q 0.09907,-0.08256 0.198135,-0.156858 0.09907,-0.08256 0.206391,-0.148601 0.04953,0.04128 0.156857,0.06605 -0.115578,0.06605 -0.222902,0.156857 -0.09907,0.09081 -0.206391,0.173369 -0.04128,-0.01651 -0.0743,-0.03302 -0.03302,-0.02477 -0.06604,-0.05779 z m 0.842076,0.140345 q -0.140346,0.01651 -0.32197,0.01651 -0.181624,0 -0.338482,-0.05779 0.04953,-0.03302 0.09907,-0.06605 0.04953,-0.04128 0.09907,-0.08256 0.05779,-0.04128 0.115579,-0.09081 0.05779,-0.04953 0.123834,-0.09081 0.03302,0 0.05779,0.0083 0.03302,0 0.06605,0 -0.107323,0.08256 -0.206391,0.173369 -0.09907,0.08256 -0.206391,0.173368 -0.02477,0.01651 0,0.02477 0.03302,0 0.04953,-0.01651 0.115579,-0.09081 0.214646,-0.181624 0.09907,-0.09081 0.214647,-0.173369 0.04953,0 0.09907,0 0.04953,0 0.09081,-0.0083 -0.115579,0.08256 -0.214647,0.189879 -0.09081,0.09907 -0.198135,0.18988 -0.0083,0.0083 0.01651,0.0083 0.03302,0 0.04953,-0.01651 0.09907,-0.09081 0.18988,-0.189879 0.09907,-0.107324 0.214646,-0.181624 0.02477,0 0.04128,0 0.01651,-0.0083 0.03302,-0.0083 0.06604,0 0.09081,-0.0083 -0.107323,0.09081 -0.206391,0.18988 -0.09907,0.09907 -0.198135,0.18988 -0.01651,0.0083 0.0083,0.0083 0.03302,-0.0083 0.04953,-0.01651 0.115579,-0.09907 0.214647,-0.198135 0.107323,-0.09907 0.214646,-0.198136 0.01651,-0.0083 0.01651,-0.0083 0.0083,-0.0083 0.02477,-0.01651 -0.03302,0.173368 -0.140346,0.297203 -0.107324,0.123834 -0.363248,0.140345 z m 0.743007,-2.402391 q 0.02477,-0.0083 0.04953,-0.04953 h 0.06604 0.08256 q -0.09081,0.06605 -0.173369,0.140346 -0.0743,0.0743 -0.156857,0.148602 0,-0.04128 0,-0.0743 0,-0.03302 0.0083,-0.06605 z m -0.123834,0.313715 q 0.09081,-0.09081 0.181624,-0.181625 0.09907,-0.09907 0.214646,-0.165112 0.04953,0 0.0743,0.0083 -0.115579,0.09081 -0.231158,0.18988 -0.115579,0.09907 -0.231158,0.206391 0,-0.01651 -0.0083,-0.02477 0,-0.01651 0,-0.03302 z m 0.313714,0.247669 q 0.09081,-0.0743 0.173368,-0.148602 0.08256,-0.08256 0.181624,-0.148601 0,0.0083 -0.0083,0.01651 0,0.0083 0,0.01651 -0.05779,0.132091 -0.148602,0.18988 -0.09081,0.05779 -0.198135,0.0743 z m 0.437549,-0.569639 q -0.0083,0.02477 -0.01651,0.04953 -0.0083,0.02477 -0.01651,0.04953 h -0.0083 q -0.06605,0.01651 -0.123835,0.05779 -0.04953,0.04128 -0.09907,0.08256 -0.09081,0.09081 -0.189879,0.165113 -0.09907,0.0743 -0.198136,0.156857 -0.01651,0.01651 0.01651,0.01651 0.03302,-0.0083 0.04953,-0.01651 0.06605,-0.05779 0.132091,-0.107323 0.06604,-0.05779 0.13209,-0.115579 0.06605,-0.05779 0.13209,-0.123835 0.0743,-0.06604 0.156857,-0.09081 -0.01651,0.03302 -0.02477,0.06605 0,0.02477 -0.01651,0.05779 -0.03302,0 -0.04128,0.0083 -0.115579,0.06605 -0.206391,0.156858 -0.08256,0.09081 -0.18988,0.165112 -0.04953,0.0083 -0.09907,0.0083 -0.04953,0 -0.09081,0 -0.0083,-0.04128 -0.01651,-0.08256 0,-0.04128 -0.01651,-0.09081 h 0.01651 q 0.115579,-0.115579 0.231158,-0.214647 0.123835,-0.107323 0.255925,-0.214647 0.04953,0.01651 0.115579,0 -0.156857,0.115579 -0.297203,0.24767 -0.140346,0.123834 -0.288948,0.239413 -0.02477,0.02477 0,0.04128 0.03302,0.0083 0.04953,-0.0083 0.165113,-0.140346 0.32197,-0.280692 0.156857,-0.148602 0.330226,-0.264181 0.02477,-0.01651 0.0083,-0.03302 0.01651,-0.01651 0.03302,-0.02477 -0.01651,0.02477 -0.02477,0.04953 0,0.02477 -0.01651,0.04953 z m -0.77603,-1.131023 q 0,0.13209 0.09907,0.173368 0.09907,0.04128 0.206391,0.03302 0.08256,-0.0083 0.156858,-0.0083 0.0743,-0.0083 0.148601,-0.02477 0.107323,-0.0083 0.156857,0.01651 0.05779,0.02477 0.08256,0.08256 0.02477,0.05779 0.02477,0.13209 0.0083,0.0743 0.0083,0.156857 0,0.173369 -0.05779,0.313715 -0.04953,0.13209 -0.18988,0.173368 0,-0.0083 0.0083,-0.0083 -0.04953,0.01651 -0.08256,0.01651 -0.05779,0.0083 -0.140346,0 -0.06605,-0.01651 -0.13209,-0.0083 -0.06605,0 -0.13209,0.0083 -0.06605,0.01651 -0.140346,0.05779 -0.0743,0.03302 -0.09081,0.107324 v 0.04128 q -0.02477,0.02477 -0.04128,0.03302 -0.01651,0.01651 0.03302,0.01651 -0.0083,0.09907 0,0.206391 0.0083,0.09907 0.02477,0.214646 -0.01651,0.01651 0,0.02477 0.01651,0.115579 0.02477,0.231158 0.01651,0.107323 0.01651,0.214647 0,0.148601 -0.0083,0.297203 0,0.140346 -0.01651,0.280692 v 0.01651 q -0.0083,0.02477 -0.02477,0.05779 0,0.04128 -0.0083,0.05779 -0.05779,0.140346 -0.18988,0.173368 -0.123834,0.02477 -0.272436,0.02477 0.01651,-0.0083 0.02477,-0.01651 0.0083,-0.0083 0.02477,-0.01651 h -0.0743 q -0.01651,0.0083 -0.02477,0.01651 0,0.0083 -0.01651,0.01651 h -0.08256 -0.0083 q 0.0083,0 0.0083,-0.0083 0.03302,-0.0083 0.02477,-0.01651 0,-0.0083 -0.03302,0 -0.01651,0.0083 -0.03302,0.0083 -0.0083,0 -0.02477,0.0083 -0.107323,-0.01651 -0.165112,-0.0743 0.01651,-0.0083 0.03302,-0.02477 -0.0083,0 -0.02477,-0.01651 -0.0083,0.0083 -0.01651,0.0083 0,0 -0.0083,0.0083 -0.04953,-0.06605 -0.0743,-0.156857 -0.01651,-0.09081 -0.02477,-0.18988 0,-0.09907 0,-0.198135 0.0083,-0.107324 0.0083,-0.18988 -0.01651,-0.338481 -0.01651,-0.668707 0,-0.330226 -0.01651,-0.668707 -0.01651,-0.668707 0.04953,-1.353925 0.0083,-0.01651 0.0083,-0.04128 0.0083,0 0.0083,0 0,-0.0083 0.0083,-0.0083 0,-0.01651 0.0083,-0.02477 -0.01651,0 -0.02477,0.0083 0.0083,-0.04128 0.01651,-0.08256 0.0083,-0.04953 0.01651,-0.09081 0.01651,-0.0083 0.01651,-0.0083 0.0083,-0.0083 0.02477,-0.01651 0,-0.01651 0.01651,-0.04953 h -0.0083 q -0.0083,0.0083 -0.01651,0.01651 -0.0083,0 -0.01651,0.0083 0.0083,-0.04128 0.01651,-0.0743 0.0083,-0.03302 0.01651,-0.0743 0.01651,-0.0083 0.03302,-0.0083 0.01651,-0.0083 0.03302,-0.01651 0.0083,-0.01651 0.0083,-0.02477 0.0083,-0.01651 0.01651,-0.03302 -0.04953,0.01651 -0.06605,0.03302 0.0083,-0.04128 0.01651,-0.0743 0.01651,-0.03302 0.03302,-0.0743 0.06605,-0.03302 0.09907,-0.04128 0.0083,-0.01651 0.02477,-0.03302 -0.03302,0.01651 -0.05779,0.02477 -0.02477,0.0083 -0.04953,0.01651 0.02477,-0.05779 0.04953,-0.115579 0.02477,-0.05779 0.06604,-0.107323 0.0743,-0.04953 0.156857,-0.09081 0.01651,-0.01651 0.01651,-0.03302 0.0083,-0.01651 0.02477,-0.03302 -0.04128,0.01651 -0.0743,0.03302 -0.02477,0.0083 -0.06605,0.02477 0.06605,-0.0743 0.13209,-0.13209 0.06604,-0.06605 0.148602,-0.09907 0.01651,0 0.02477,-0.0083 0.239413,-0.123835 0.544872,-0.140346 0.313714,-0.02477 0.602662,0.05779 0.297203,0.08256 0.536616,0.255924 0.24767,0.173369 0.363249,0.437549 0.05779,0.115579 0.04953,0.264181 0,0.140346 -0.04128,0.26418 -0.02477,0.08256 -0.165113,0.123835 0.05779,-0.04128 0.115579,-0.06605 0.03302,-0.01651 0.0083,-0.02477 -0.01651,-0.01651 -0.03302,-0.0083 l -0.04953,0.02477 q -0.0743,0.0743 -0.132091,0.09081 -0.198135,0.02477 -0.39627,-0.04128 h -0.01651 q -0.06605,-0.02477 -0.115579,-0.05779 0.0083,-0.0083 0.01651,-0.0083 -0.01651,-0.0083 -0.02477,-0.01651 0,-0.0083 -0.01651,-0.01651 0,0 -0.01651,0.01651 l -0.02477,-0.02477 q -0.0083,-0.0083 -0.0083,-0.0083 0,-0.0083 -0.0083,-0.01651 0,-0.0083 0,-0.0083 0.0083,0 0.0083,-0.0083 l -0.02477,-0.02477 -0.0083,0.0083 q -0.06604,-0.115579 -0.13209,-0.206391 -0.06605,-0.09907 -0.247669,-0.09081 -0.01651,0 -0.02477,0.0083 l 0.02477,-0.02477 h -0.01651 q -0.03302,0 -0.04128,-0.0083 -0.03302,0.03302 -0.04953,0.04128 -0.189879,0.04128 -0.255925,0.173369 -0.06605,0.123834 -0.08256,0.288947 -0.01651,0.0083 -0.03302,0.02477 -0.01651,0.0083 0.0083,0 h 0.02477 q 0,0.09081 0,0.18988 0,0.09081 0.0083,0.181624 z m 0.693473,-0.115579 q -0.04128,-0.06605 -0.05779,-0.140346 0.09907,-0.05779 0.206391,-0.148601 0.04953,0.02477 0.140346,0.04128 -0.0743,0.05779 -0.148602,0.123834 -0.06605,0.05779 -0.140346,0.115579 z m -0.594406,-0.462316 q 0.05779,-0.05779 0.115579,-0.115579 0.05779,-0.06605 0.123835,-0.123834 0.06604,0 0.107323,0.0083 -0.107323,0.04953 -0.198135,0.13209 -0.08256,0.08256 -0.156857,0.165113 0,-0.04128 0.0083,-0.06605 z m 0.01651,-0.08256 q 0.03302,-0.09081 0.13209,-0.132091 -0.03302,0.03302 -0.06605,0.06605 -0.03302,0.02477 -0.06605,0.06605 z m -0.03302,0.222902 q 0.0083,0 0.02477,-0.01651 0.09081,-0.09081 0.18988,-0.18988 0.09907,-0.09907 0.222902,-0.148602 0.02477,0.0083 0.05779,0.02477 -0.09907,0.0743 -0.198135,0.156858 -0.09907,0.08256 -0.206391,0.156857 -0.01651,0.01651 -0.01651,0.02477 0.0083,0.0083 0.02477,0.0083 -0.02477,0.0083 -0.04953,0.0083 -0.02477,0 -0.04953,0.0083 z m 0.13209,0.0083 q 0.107324,-0.0743 0.206391,-0.156858 0.09907,-0.08256 0.206391,-0.156857 l 0.04953,0.04953 q -0.0743,0.06605 -0.156857,0.13209 -0.08256,0.05779 -0.165113,0.115579 -0.04128,0.0083 -0.0743,0.0083 -0.03302,0 -0.06604,0.0083 z m 0.255925,0 q -0.01651,-0.0083 -0.06605,-0.0083 v -0.0083 q 0.140346,-0.09907 0.288947,-0.214646 0.01651,0.03302 0.03302,0.06605 0.01651,0.03302 0.03302,0.06605 -0.04953,0.04128 -0.09907,0.0743 -0.04128,0.03302 -0.09081,0.06605 -0.01651,-0.01651 -0.04128,-0.02477 -0.01651,-0.0083 -0.05779,-0.01651 z m 0.123835,0.0743 q 0.04128,-0.04128 0.08256,-0.06605 0.04953,-0.03302 0.09081,-0.0743 0.01651,0.01651 0.01651,0.03302 0.0083,0.01651 0.02477,0.03302 -0.04128,0.04128 -0.09081,0.0743 -0.04953,0.02477 -0.09907,0.05779 0,-0.03302 -0.02477,-0.05779 z m 0.107323,0.24767 q 0.01651,0.0083 0.02477,0.0083 0.01651,-0.0083 0.02477,-0.0083 0.0743,-0.06605 0.140346,-0.123835 0.0743,-0.06605 0.148601,-0.13209 0.03302,0.0083 0.05779,0.0083 0.02477,0 0.04128,0.0083 h 0.01651 q -0.08256,0.06605 -0.156857,0.13209 -0.0743,0.05779 -0.156857,0.123835 -0.02477,0.01651 0,0.03302 0.03302,0.0083 0.04953,-0.0083 0.08256,-0.06605 0.156857,-0.13209 0.08256,-0.0743 0.173368,-0.132091 0.04128,0.0083 0.08256,0.01651 0.04128,0 0.08256,0 -0.0083,0.0083 -0.01651,0.0083 0,0 -0.0083,0.0083 -0.181624,0.181624 -0.412782,0.32197 l -0.0083,0.0083 q -0.164948,-0.0415 -0.239249,-0.140564 z M 53.9326,68.936767 q -0.03302,0.140345 -0.18988,0.239413 -0.156857,0.09081 -0.346737,0.115579 0.123835,-0.09081 0.231158,-0.206391 0.115579,-0.123834 0.255925,-0.18988 0.03302,-0.01651 0,-0.01651 -0.02477,-0.0083 -0.04128,0 -0.148602,0.0743 -0.264181,0.198135 -0.115579,0.123835 -0.255925,0.214647 -0.06605,0.01651 -0.13209,0 0.13209,-0.0743 0.280692,-0.198135 0.04128,-0.04128 0.08256,-0.0743 0.04953,-0.04128 0.09081,-0.08256 0.01651,-0.0083 0.03302,-0.0083 0.02477,0 0.04953,-0.0083 0.156857,-0.02477 0.231158,-0.140346 -0.0083,0.04128 -0.0083,0.08256 0,0.03302 -0.01651,0.0743 z"
                        style="font-style:normal;font-variant:normal;font-weight:normal;font-stretch:normal;font-family:LaBoldyta;-inkscape-font-specification:LaBoldyta;stroke-width:0.0546076"
                        id="path109" />
            </g>
            <text
                    xml:space="preserve"
                    id="text94"
                    style="font-size:7.83077px;line-height:1.25;font-family:'ChunkFive Print';-inkscape-font-specification:'ChunkFive Print';white-space:pre;shape-inside:url(#rect96);" />
            <path
                    transform="matrix(0.19576926,0,0,0.19576926,47.731844,64.643557)"
                    id="path32"
                    d="M 4.5425028,28.158524 C 4.100462,27.596561 4.044715,26.900293 3.8904218,20.01417 3.7251752,12.639192 3.9565004,7.2288215 4.4585356,6.7267863 4.5898016,6.5955202 4.6440889,6.3497125 4.5791739,6.1805468 4.5142589,6.0113811 4.6300266,5.7328148 4.8364355,5.5615106 5.0428444,5.3902065 5.1551272,5.1025587 5.0859529,4.9222932 5.0167785,4.7420279 5.1450114,4.523612 5.3709149,4.4369247 5.6392976,4.3339367 5.7285836,4.1121195 5.6285375,3.7969017 5.5178346,3.4481079 5.6865961,3.164126 6.2378375,2.7716077 6.6571635,2.4730211 6.9739226,2.0929244 6.9417464,1.9269482 6.9095703,1.760972 7.4514552,1.3410678 8.1459351,0.99382787 9.9199198,0.10683557 13.491463,0.09877301 15.707151,0.97675884 19.396431,2.4386682 21.427426,6.5567235 19.109556,7.8754921 17.543665,8.7664168 15.484356,8.1733212 14.449006,6.5332201 13.573185,5.1458296 11.952749,4.9199213 10.705469,6.0113265 9.9760371,6.6495995 9.7355193,7.5323231 9.768404,9.4504459 c 0.040043,2.3356191 0.247196,2.5283981 2.640244,2.4570391 2.337213,-0.06969 2.525927,0.113547 2.385654,2.316494 -0.138268,2.171445 -0.391029,2.427213 -2.398682,2.427213 -1.764401,0 -3.0210265,0.475351 -3.1620423,1.196124 -0.047925,0.244956 0.0074,1.411333 0.1229452,2.591948 0.1155443,1.180616 0.1745357,3.299781 0.1310918,4.709256 -0.1026595,3.330644 -0.3257343,3.624503 -2.7514502,3.624503 -1.5110235,0 -1.7666164,-0.0716 -2.1936617,-0.614499 z"
                    style="opacity:0.989;fill-opacity:0.999931;stroke-width:0.44574;paint-order:markers stroke fill" />
        </g>
    </g>
</svg>
